<mxfile host="Electron" modified="2024-07-02T08:31:05.353Z" agent="Mozilla/5.0 (X11; Linux x86_64) AppleWebKit/537.36 (KHTML, like Gecko) draw.io/24.4.8 Chrome/124.0.6367.207 Electron/30.0.6 Safari/537.36" etag="54BNsAhoyLdLAJIlDSDe" version="24.3.1" type="device">
  <diagram name="第 1 页" id="bMDvf2xhQBhtazgmXYhx">
    <mxGraphModel dx="821" dy="587" grid="1" gridSize="10" guides="1" tooltips="1" connect="1" arrows="1" fold="1" page="1" pageScale="1" pageWidth="827" pageHeight="1169" math="0" shadow="0">
      <root>
        <mxCell id="0" />
        <mxCell id="1" parent="0" />
        <mxCell id="D9jqfNHnaUeV8ZHQdJqq-15" value="&lt;font face=&quot;寒蝉圆黑体&quot;&gt;&lt;span style=&quot;font-size: 14px;&quot;&gt;remainder&lt;/span&gt;&lt;/font&gt;&lt;br&gt;&lt;div style=&quot;font-size: 14px;&quot;&gt;&lt;font style=&quot;font-size: 14px;&quot; face=&quot;寒蝉圆黑体&quot;&gt;~4KB&lt;/font&gt;&lt;/div&gt;" style="rounded=0;whiteSpace=wrap;html=1;fillColor=#EA6B66;" vertex="1" parent="1">
          <mxGeometry x="600" y="240" width="120" height="240" as="geometry" />
        </mxCell>
        <mxCell id="D9jqfNHnaUeV8ZHQdJqq-1" value="&lt;font style=&quot;font-size: 14px;&quot; face=&quot;寒蝉圆黑体&quot;&gt;large hole&lt;/font&gt;&lt;div style=&quot;font-size: 14px;&quot;&gt;&lt;font style=&quot;font-size: 14px;&quot; face=&quot;寒蝉圆黑体&quot;&gt;~8KB&lt;/font&gt;&lt;/div&gt;" style="rounded=0;whiteSpace=wrap;html=1;fillColor=#EA6B66;" vertex="1" parent="1">
          <mxGeometry x="120" y="80" width="120" height="320" as="geometry" />
        </mxCell>
        <mxCell id="D9jqfNHnaUeV8ZHQdJqq-3" value="&lt;font face=&quot;寒蝉圆黑体&quot;&gt;...&lt;/font&gt;" style="rounded=0;whiteSpace=wrap;html=1;" vertex="1" parent="1">
          <mxGeometry x="120" y="400" width="120" height="40" as="geometry" />
        </mxCell>
        <mxCell id="D9jqfNHnaUeV8ZHQdJqq-5" value="&lt;font face=&quot;寒蝉圆黑体&quot;&gt;&lt;span style=&quot;font-size: 14px;&quot;&gt;small hole&lt;/span&gt;&lt;/font&gt;&lt;div&gt;&lt;font face=&quot;寒蝉圆黑体&quot;&gt;&lt;span style=&quot;font-size: 14px;&quot;&gt;320B&lt;/span&gt;&lt;/font&gt;&lt;/div&gt;" style="rounded=0;whiteSpace=wrap;html=1;fillColor=#EA6B66;" vertex="1" parent="1">
          <mxGeometry x="120" y="440" width="120" height="40" as="geometry" />
        </mxCell>
        <mxCell id="D9jqfNHnaUeV8ZHQdJqq-6" value="" style="shape=flexArrow;endArrow=classic;html=1;rounded=0;endWidth=10.857142857142858;endSize=6.24;" edge="1" parent="1">
          <mxGeometry width="50" height="50" relative="1" as="geometry">
            <mxPoint x="260" y="260" as="sourcePoint" />
            <mxPoint x="340" y="260" as="targetPoint" />
          </mxGeometry>
        </mxCell>
        <mxCell id="D9jqfNHnaUeV8ZHQdJqq-7" value="&lt;font face=&quot;寒蝉圆黑体&quot;&gt;&lt;span style=&quot;font-size: 14px;&quot;&gt;allocated&lt;/span&gt;&lt;/font&gt;&lt;br&gt;&lt;div style=&quot;font-size: 14px;&quot;&gt;&lt;font style=&quot;font-size: 14px;&quot; face=&quot;寒蝉圆黑体&quot;&gt;~4KB&lt;/font&gt;&lt;/div&gt;" style="rounded=0;whiteSpace=wrap;html=1;fillColor=#B9E0A5;" vertex="1" parent="1">
          <mxGeometry x="360" y="80" width="120" height="160" as="geometry" />
        </mxCell>
        <mxCell id="D9jqfNHnaUeV8ZHQdJqq-8" value="&lt;font face=&quot;寒蝉圆黑体&quot;&gt;...&lt;/font&gt;" style="rounded=0;whiteSpace=wrap;html=1;" vertex="1" parent="1">
          <mxGeometry x="360" y="400" width="120" height="40" as="geometry" />
        </mxCell>
        <mxCell id="D9jqfNHnaUeV8ZHQdJqq-9" value="&lt;font face=&quot;寒蝉圆黑体&quot;&gt;&lt;span style=&quot;font-size: 14px;&quot;&gt;small hole&lt;/span&gt;&lt;/font&gt;&lt;div&gt;&lt;font face=&quot;寒蝉圆黑体&quot;&gt;&lt;span style=&quot;font-size: 14px;&quot;&gt;320B&lt;/span&gt;&lt;/font&gt;&lt;/div&gt;" style="rounded=0;whiteSpace=wrap;html=1;fillColor=#EA6B66;" vertex="1" parent="1">
          <mxGeometry x="360" y="440" width="120" height="40" as="geometry" />
        </mxCell>
        <mxCell id="D9jqfNHnaUeV8ZHQdJqq-10" value="&lt;font face=&quot;寒蝉圆黑体&quot;&gt;&lt;span style=&quot;font-size: 14px;&quot;&gt;remainder&lt;/span&gt;&lt;/font&gt;&lt;br&gt;&lt;div style=&quot;font-size: 14px;&quot;&gt;&lt;font style=&quot;font-size: 14px;&quot; face=&quot;寒蝉圆黑体&quot;&gt;~4KB&lt;/font&gt;&lt;/div&gt;" style="rounded=0;whiteSpace=wrap;html=1;fillColor=#EA6B66;" vertex="1" parent="1">
          <mxGeometry x="360" y="240" width="120" height="160" as="geometry" />
        </mxCell>
        <mxCell id="D9jqfNHnaUeV8ZHQdJqq-11" value="" style="shape=flexArrow;endArrow=classic;html=1;rounded=0;endWidth=10.857142857142858;endSize=6.24;" edge="1" parent="1">
          <mxGeometry width="50" height="50" relative="1" as="geometry">
            <mxPoint x="500" y="260" as="sourcePoint" />
            <mxPoint x="580" y="260" as="targetPoint" />
          </mxGeometry>
        </mxCell>
        <mxCell id="D9jqfNHnaUeV8ZHQdJqq-12" value="&lt;font face=&quot;寒蝉圆黑体&quot;&gt;&lt;span style=&quot;font-size: 14px;&quot;&gt;allocated&lt;/span&gt;&lt;/font&gt;&lt;br&gt;&lt;div style=&quot;font-size: 14px;&quot;&gt;&lt;font style=&quot;font-size: 14px;&quot; face=&quot;寒蝉圆黑体&quot;&gt;~4KB&lt;/font&gt;&lt;/div&gt;" style="rounded=0;whiteSpace=wrap;html=1;fillColor=#B9E0A5;" vertex="1" parent="1">
          <mxGeometry x="600" y="80" width="120" height="160" as="geometry" />
        </mxCell>
        <mxCell id="D9jqfNHnaUeV8ZHQdJqq-13" value="&lt;font face=&quot;寒蝉圆黑体&quot;&gt;...&lt;/font&gt;" style="rounded=0;whiteSpace=wrap;html=1;" vertex="1" parent="1">
          <mxGeometry x="600" y="400" width="110" height="40" as="geometry" />
        </mxCell>
        <mxCell id="D9jqfNHnaUeV8ZHQdJqq-14" value="&lt;font face=&quot;寒蝉圆黑体&quot;&gt;&lt;span style=&quot;font-size: 14px;&quot;&gt;small hole&lt;/span&gt;&lt;/font&gt;&lt;div&gt;&lt;font face=&quot;寒蝉圆黑体&quot;&gt;&lt;span style=&quot;font-size: 14px;&quot;&gt;320B&lt;/span&gt;&lt;/font&gt;&lt;/div&gt;" style="rounded=0;whiteSpace=wrap;html=1;fillColor=#EA6B66;" vertex="1" parent="1">
          <mxGeometry x="600" y="440" width="110" height="40" as="geometry" />
        </mxCell>
        <mxCell id="D9jqfNHnaUeV8ZHQdJqq-16" value="" style="shape=flexArrow;endArrow=classic;html=1;rounded=0;endWidth=10.857142857142858;endSize=6.24;" edge="1" parent="1">
          <mxGeometry width="50" height="50" relative="1" as="geometry">
            <mxPoint x="540" y="370" as="sourcePoint" />
            <mxPoint x="540" y="280" as="targetPoint" />
          </mxGeometry>
        </mxCell>
        <mxCell id="D9jqfNHnaUeV8ZHQdJqq-17" value="&lt;font face=&quot;寒蝉圆黑体&quot;&gt;&lt;b&gt;修改size&lt;/b&gt;&lt;/font&gt;" style="text;html=1;align=center;verticalAlign=middle;whiteSpace=wrap;rounded=0;" vertex="1" parent="1">
          <mxGeometry x="510" y="370" width="60" height="30" as="geometry" />
        </mxCell>
        <mxCell id="D9jqfNHnaUeV8ZHQdJqq-19" value="&lt;font face=&quot;寒蝉圆黑体&quot;&gt;&lt;b&gt;overlapped&lt;/b&gt;&lt;/font&gt;" style="text;html=1;align=center;verticalAlign=middle;whiteSpace=wrap;rounded=0;" vertex="1" parent="1">
          <mxGeometry x="720" y="425" width="80" height="30" as="geometry" />
        </mxCell>
        <mxCell id="D9jqfNHnaUeV8ZHQdJqq-20" value="" style="shape=flexArrow;endArrow=classic;html=1;rounded=0;endWidth=10.857142857142858;endSize=6.24;" edge="1" parent="1">
          <mxGeometry width="50" height="50" relative="1" as="geometry">
            <mxPoint x="740" y="260" as="sourcePoint" />
            <mxPoint x="820" y="260" as="targetPoint" />
          </mxGeometry>
        </mxCell>
        <mxCell id="D9jqfNHnaUeV8ZHQdJqq-21" value="&lt;font face=&quot;寒蝉圆黑体&quot;&gt;&lt;span style=&quot;font-size: 14px;&quot;&gt;read buffer&lt;/span&gt;&lt;/font&gt;&lt;div&gt;&lt;font face=&quot;寒蝉圆黑体&quot;&gt;&lt;span style=&quot;font-size: 14px;&quot;&gt;4KB&lt;/span&gt;&lt;/font&gt;&lt;/div&gt;" style="rounded=0;whiteSpace=wrap;html=1;fillColor=#EA6B66;" vertex="1" parent="1">
          <mxGeometry x="840" y="240" width="120" height="220" as="geometry" />
        </mxCell>
        <mxCell id="D9jqfNHnaUeV8ZHQdJqq-22" value="&lt;font face=&quot;寒蝉圆黑体&quot;&gt;&lt;span style=&quot;font-size: 14px;&quot;&gt;allocated&lt;/span&gt;&lt;/font&gt;&lt;br&gt;&lt;div style=&quot;font-size: 14px;&quot;&gt;&lt;font style=&quot;font-size: 14px;&quot; face=&quot;寒蝉圆黑体&quot;&gt;~4KB&lt;/font&gt;&lt;/div&gt;" style="rounded=0;whiteSpace=wrap;html=1;fillColor=#B9E0A5;" vertex="1" parent="1">
          <mxGeometry x="840" y="80" width="120" height="160" as="geometry" />
        </mxCell>
        <mxCell id="D9jqfNHnaUeV8ZHQdJqq-23" value="&lt;font face=&quot;寒蝉圆黑体&quot;&gt;...&lt;/font&gt;" style="rounded=0;whiteSpace=wrap;html=1;" vertex="1" parent="1">
          <mxGeometry x="840" y="400" width="110" height="40" as="geometry" />
        </mxCell>
        <mxCell id="D9jqfNHnaUeV8ZHQdJqq-24" value="&lt;font face=&quot;寒蝉圆黑体&quot;&gt;&lt;span style=&quot;font-size: 14px;&quot;&gt;FILE&lt;/span&gt;&lt;/font&gt;" style="rounded=0;whiteSpace=wrap;html=1;fillColor=#EA6B66;" vertex="1" parent="1">
          <mxGeometry x="840" y="440" width="110" height="40" as="geometry" />
        </mxCell>
      </root>
    </mxGraphModel>
  </diagram>
</mxfile>
